<svg xmlns="http://www.w3.org/2000/svg" width="24.209" height="19.367" viewBox="0 0 24.209 19.367">
  <path id="Icon_awesome-user-plus" data-name="Icon awesome-user-plus" d="M23.6,7.868H21.183V5.447a.607.607,0,0,0-.605-.605h-1.21a.607.607,0,0,0-.605.605V7.868H16.341a.607.607,0,0,0-.605.605v1.21a.607.607,0,0,0,.605.605h2.421V12.71a.607.607,0,0,0,.605.605h1.21a.607.607,0,0,0,.605-.605V10.289H23.6a.607.607,0,0,0,.605-.605V8.473A.607.607,0,0,0,23.6,7.868ZM8.473,9.684A4.842,4.842,0,1,0,3.631,4.842,4.841,4.841,0,0,0,8.473,9.684Zm3.389,1.21h-.632a6.585,6.585,0,0,1-5.515,0H5.084A5.085,5.085,0,0,0,0,15.978v1.574a1.816,1.816,0,0,0,1.816,1.816H15.131a1.816,1.816,0,0,0,1.816-1.816V15.978A5.085,5.085,0,0,0,11.862,10.894Z" fill="#303e54"/>
</svg>
