<svg xmlns="http://www.w3.org/2000/svg" width="21.975" height="22.014" viewBox="0 0 21.975 22.014">
  <path id="Icon_feather-phone" data-name="Icon feather-phone" d="M22.141,17.234V20.1A1.908,1.908,0,0,1,20.061,22a18.879,18.879,0,0,1-8.233-2.929A18.6,18.6,0,0,1,6.1,13.351,18.88,18.88,0,0,1,3.176,5.08,1.908,1.908,0,0,1,5.074,3H7.936A1.908,1.908,0,0,1,9.844,4.641a12.249,12.249,0,0,0,.668,2.681,1.908,1.908,0,0,1-.429,2.013L8.871,10.546a15.264,15.264,0,0,0,5.724,5.724l1.212-1.212a1.908,1.908,0,0,1,2.013-.429A12.249,12.249,0,0,0,20.5,15.3,1.908,1.908,0,0,1,22.141,17.234Z" transform="translate(-1.668 -1.5)" fill="none" stroke="#303e54" stroke-linecap="round" stroke-linejoin="round" stroke-width="3"/>
</svg>
