<svg xmlns="http://www.w3.org/2000/svg" width="80.88" height="79.908" viewBox="0 0 80.88 79.908">
  <path id="icons8-upload" d="M40.343.313c-1.689,0-3.378,1.726-6.8,5.152L13.124,25.976c-3.755,3.767-2.5,4.472,1.458,4.472h10.3V55.334a9.335,9.335,0,0,0,9.332,9.332H46.662a9.335,9.335,0,0,0,9.332-9.332V30.448H66.1c4.387,0,5.31-.7,1.555-4.472L47.148,5.465C43.721,2.038,42.032.313,40.343.313ZM0,58.445V70.888a9.335,9.335,0,0,0,9.332,9.332H71.548a9.335,9.335,0,0,0,9.332-9.332V58.445H74.659V70.888A3.117,3.117,0,0,1,71.548,74H9.332a3.117,3.117,0,0,1-3.111-3.111V58.445Z" transform="translate(0 -0.313)" fill="#001920"/>
</svg>
