<svg xmlns="http://www.w3.org/2000/svg" width="45.168" height="48.111" viewBox="0 0 45.168 48.111">
  <g id="Group_374" data-name="Group 374" transform="translate(-1511.832 -38)">
    <path id="Icon_material-notifications-none" data-name="Icon material-notifications-none" d="M25.584,51.486a4.91,4.91,0,0,0,4.9-4.9H20.688A4.91,4.91,0,0,0,25.584,51.486ZM40.272,36.8V24.558c0-7.515-3.99-13.807-11.016-15.471V7.422a3.672,3.672,0,1,0-7.344,0V9.087c-7,1.665-11.016,7.932-11.016,15.471V36.8L6,41.694v2.448H45.168V41.694Zm-4.9,2.448H15.792V24.558c0-6.071,3.7-11.016,9.792-11.016s9.792,4.945,9.792,11.016Z" transform="translate(1505.832 34.625)" fill="#008bf6"/>
    <circle id="Ellipse_122" data-name="Ellipse 122" cx="11.5" cy="11.5" r="11.5" transform="translate(1534 38)" fill="#ff4848"/>
  </g>
</svg>
