<svg xmlns="http://www.w3.org/2000/svg" width="101.364" height="101.36" viewBox="0 0 101.364 101.36">
  <g id="location-3" transform="translate(-4.556 -4.56)">
    <path id="Path_1922" data-name="Path 1922" d="M74.421,34.843a12.6,12.6,0,1,0-12.6,12.6A12.6,12.6,0,0,0,74.421,34.843Zm-22.214,0a9.615,9.615,0,1,1,9.615,9.616,9.614,9.614,0,0,1-9.615-9.616Z" transform="translate(-6.584 -2.607)" fill="#303e54"/>
    <path id="Path_1923" data-name="Path 1923" d="M105.821,103.9,93.658,72.008a1.493,1.493,0,0,0-1.394-.96H69.244c.141-.229.281-.452.421-.682C78.523,55.7,82.98,42.873,82.916,32.243a27.679,27.679,0,1,0-55.358,0C27.494,42.873,31.952,55.7,40.809,70.366c.141.233.281.455.421.682H18.21a1.493,1.493,0,0,0-1.394.96L4.655,103.9a1.49,1.49,0,0,0,1.394,2.024h98.378a1.49,1.49,0,0,0,1.394-2.024ZM30.543,32.236a24.695,24.695,0,0,1,49.389,0c.128,21.2-19.687,47.338-24.695,53.606-5.008-6.266-24.823-32.4-24.695-53.611ZM54.1,89.172a1.492,1.492,0,0,0,2.273,0,158.342,158.342,0,0,0,11-15.141H91.235l1.91,5.009L46.515,95.624l-16.621-21.6H43.1a158.344,158.344,0,0,0,11,15.144Zm-7.638,9.634h.009l27.818-9.89,10.79,14.019H34.861ZM19.24,74.028h6.889L43.557,96.675l-17.6,6.26H8.215Zm69.609,28.907L77.245,87.86l16.967-6.034,8.051,21.11Z" fill="#303e54"/>
  </g>
</svg>
